<svg xmlns="http://www.w3.org/2000/svg" xmlns:xlink="http://www.w3.org/1999/xlink" width="166.5" height="164"><circle cx="82.916" cy="82.5" r="80"/><defs><path id="a" d="M103.109 34.882v-.095l2.078-10.393s-4.619-10.625-20.094-9.354c-15.472 1.27-17.435 4.85-19.976 9.123l1.5 6.812-2.888 1.848s-1.038-3.117-2.655-3.233c0 0 2.425-3.464.693-5.89-1.732-2.425-10.97-2.193-14.55 10.048 0 0-.461-3.696-1.963-3.696-1.501 0-7.043 1.964-5.542 7.738 1.501 5.773 6.698 7.505 8.43 8.197 0 0 .807 1.04.461 2.426-.182.728-4.372 13.68-.872 25.653 2.613 8.942 10.968 16.711 10.968 16.711 6.383 6.086 14.992 9.82 24.467 9.82 19.672 0 35.621-16.089 35.621-35.937.002-12.39-6.217-23.318-15.678-29.778z"/></defs><clipPath id="b"><use xlink:href="#a" overflow="visible"/></clipPath><circle clip-path="url(#b)" fill="#fff" cx="82.708" cy="64.914" r="36.081"/><g clip-path="url(#b)"><path fill="#050505" d="M95.73 77.76s25.891 4.168 28.742 40.37c0 0-4.828 3.071-9.873 3.291.001 0 .438-27.862-18.869-43.661z"/><path fill="#DD002A" d="M110.869 100.403c.203.587.395 1.168.576 1.745 1.701-.174 5.514-.712 8.891-2.241-.236-.566-.48-1.116-.729-1.652-1.242.57-3.996 1.587-8.738 2.148z"/><circle fill="#F4CF8C" cx="69.024" cy="50.344" r="5.553"/><circle fill="#F4CF8C" cx="69.024" cy="50.344" r="5.553"/><path fill="#F4CF8C" d="M63.473 50.344c0 .172.008.34.024.506.395-.168.817-.387 1.266-.674 2.632-1.682 2.709-3.686 2.122-4.957-2.005.839-3.412 2.816-3.412 5.125z"/><circle fill="#F4CF8C" cx="66.156" cy="50.343" r="2.684"/><path fill="#D8AF6F" d="M66.156 47.66l-.321.021c1.046.158 1.857 1.289 1.857 2.662 0 1.375-.812 2.504-1.857 2.664l.321.021c1.482 0 2.684-1.203 2.684-2.684 0-1.482-1.201-2.684-2.684-2.684z"/><path fill="#F4CF8C" d="M65.835 47.681l-.253-.021c-1.166 0-2.111 1.202-2.111 2.685.002-1.374 1.033-2.505 2.364-2.664zm-2.362 2.663c0 1.482.944 2.684 2.11 2.684l.253-.021c-1.332-.159-2.363-1.29-2.363-2.663z"/><circle fill="#F4CF8C" cx="101.521" cy="50.344" r="5.553"/><circle fill="#F4CF8C" cx="101.521" cy="50.344" r="5.553"/><circle fill="#F4CF8C" cx="104.391" cy="50.343" r="2.684"/><path fill="#D8AF6F" d="M102.854 50.344c0-1.373.811-2.504 1.857-2.663l-.32-.021c-1.482 0-2.686 1.202-2.686 2.685s1.203 2.684 2.686 2.684l.32-.021c-1.047-.16-1.857-1.291-1.857-2.664z"/><path fill="#F4CF8C" d="M107.074 50.344c0-1.482-.945-2.684-2.109-2.684l-.254.021c1.332.159 2.363 1.29 2.363 2.663zm-2.363 2.663l.254.021c1.164 0 2.111-1.201 2.111-2.684-.002 1.373-1.033 2.504-2.365 2.663zm-51.198.884s5.296.692 4.605-4.604c0 0 1.842 2.878 5.987.229 4.144-2.647 1.957-6.102.806-6.216-1.151-.115-2.763-1.383-6.792 2.763l-2.303-5.296 2.648-3.454s.363 4.989 4.211 3.588c3.847-1.399.97-9.921-2.485-9.921l-6.217 3.569s1.151-3.224 6.217-5.87c0 0 1.957-1.152.806-4.03-1.151-2.879-12.088-.807-13.816 13.239 0 0-1.956-1.843-1.497-4.72.461-2.878-5.642-2.073-4.49 4.145 1.151 6.218 7.138 7.482 7.138 7.482s2.033 3.289.575 7.023c.002.001 2.304 2.879 4.607 2.073zm10.592-4.374c4.144-2.647 1.957-6.102.806-6.216-.707-.072-1.591-.576-3.101.008l1.356 2.795s-.279 3.996-4.74 2.975c0 0-.047.156-.164.396.507.591 2.363 2.265 5.843.042zm-5.948.159c-.689 1.238-3.082 3.615-8.831.652-.109.518-.212.979-.418 1.491 0 0 2.302 2.878 4.605 2.071 0 .001 5.027.655 4.644-4.214zm.306-12.363s.364 4.989 4.212 3.588c1.573-.573 2.021-2.335 1.767-4.22-.96.993-3.925 3.516-5.087-1.825l-5.299 6.134-4.182 2.417 5.205-1.302 3.039 3.958-2.302-5.296 2.647-3.454zm-3.623-4.26c.857-1.178 2.471-2.869 5.35-4.373 0 0 1.957-1.152.807-4.03l-.069-.144c-.273.871-.807 1.908-1.851 2.635-2.138 1.487-9.76 6.785-7.344 14.779.001 0-.977-4.945 3.107-8.867zm-7.768 4.722c-.404-.438-1.782-2.142-1.388-4.606.182-1.138-.662-1.696-1.676-1.577-.181 3.095.247 9.367 6.331 11.166 0-.002-2.304-1.097-3.267-4.983z"/><path fill="#050505" d="M48.908 51.819l4.605 2.071s-4.145 22.797 17.499 23.718c0 0 .153 14.661-13.202 14.432.001 0-17.651-14.02-8.902-40.221z"/><path fill="#DD002A" d="M54.424 66.292l-.2-.628-.003-.012c-1.023.531-3.775 1.721-7.722 1.682.018.509.048 1.008.086 1.502 1.981.006 5.251-.262 8.104-1.801l-.005-.016-.232-.647-.028-.08zm1.46 3.267l-.314-.572-.001-.003c-1.179.559-4.463 1.896-8.771 1.898.075.565.164 1.122.262 1.666 2.344.002 5.809-.413 9.196-2.374l-.009-.017-.342-.563-.021-.035zm-6.976-17.74c-1.25 3.426-1.776 6.568-2.191 9.517 2.189.422 4.4.461 6.562-.936-.276-3.692.234-6.51.234-6.51l-4.605-2.071z"/><path fill="#050505" d="M98.26 77.029h-25.973c-27.643 12.139-21.207 57.922-21.207 57.922h34.374v-20.936l1.9 20.936h32.113s6.437-45.783-21.207-57.922z"/><path fill="#930023" d="M121.553 119.639c-.391-9.835-2.363-22.492-8.99-31.966-7.938-8.477-16.832-9.913-16.832-9.913 19.307 15.799 18.869 43.661 18.869 43.661 2.58-.112 5.103-.971 6.953-1.782z"/><path fill="#DD002A" d="M52.198 105.555c-.09.421-.175.842-.256 1.263 7.639-2.813 19.727-4.631 33.332-4.631 13.607 0 25.691 1.817 33.334 4.631-.082-.421-.168-.842-.258-1.263-7.65-2.761-19.621-4.538-33.076-4.538-13.455 0-25.424 1.777-33.076 4.538zm1.513-5.782c-.119.379-.235.758-.346 1.138 7.673-2.529 19.12-4.136 31.909-4.136s24.236 1.605 31.908 4.136c-.111-.38-.227-.759-.346-1.138-7.67-2.465-18.965-4.022-31.562-4.022-12.598 0-23.894 1.558-31.563 4.022zm10.746-17.718c-5.92 7.631-5.282 16.914-5.282 16.914l1.609-.731c-.506-8.098 3.19-14.513 5.516-17.697-.639.483-1.254.988-1.843 1.514zm39.791-1.515c2.324 3.186 6.021 9.6 5.516 17.697l1.609.731s.637-9.283-5.283-16.914c-.588-.525-1.203-1.03-1.842-1.514z"/><path fill="#F4CF8C" d="M99.637 76.074s-5.521 5.03-14.598 5.03c-10.796 0-14.13-5.03-14.13-5.03l-1.911-35.173h32.55l-1.911 35.173zm0 0s-5.521 5.03-14.598 5.03c-10.796 0-14.13-5.03-14.13-5.03l-1.911-35.173h32.55l-1.911 35.173zm0 0s-5.521 5.03-14.598 5.03c-10.796 0-14.13-5.03-14.13-5.03l-1.911-35.173h32.55l-1.911 35.173z"/><path fill="#B27D30" d="M89.406 46.897l.803-1.022s2.926-.147 7.424 2.267c0 0-3.254-4.023-8.154-2.669l.146-.879-1.389 2.268s.51 3.035-.037 5.229h-5.852c-.549-2.193-.037-5.229-.037-5.229l-1.389-2.268.145.879c-4.898-1.354-8.153 2.669-8.153 2.669 4.498-2.414 7.423-2.267 7.423-2.267l.804 1.022c-1.572 3.145-5.266 3.401-5.266 3.401 3.877.402 5.303-2.011 5.303-2.011-.219 1.901.184 4.404.184 4.404l3.893 2.743.02-.018.018.018 3.895-2.743s.402-2.503.182-4.404c0 0 1.428 2.413 5.305 2.011-.002.001-3.695-.256-5.268-3.401z"/><ellipse fill="#050505" cx="85.273" cy="58.288" rx="5.338" ry="3.2"/><path fill="#DD002A" d="M85.273 61.648c1.207 0 2.322-.4 3.217-.807-.627-.677-1.832-1.137-3.217-1.137s-2.59.46-3.217 1.137c.895.407 2.01.807 3.217.807z"/><path fill="#fff" d="M85.273 55.09c-2.949 0-5.339 1.432-5.339 3.199l.021.274h10.637l.02-.274c-.001-1.768-2.391-3.199-5.339-3.199z"/><path fill="#C98C28" d="M85.273 63.572c-1.084 0-2.092-.193-2.932-.526.674.874 1.734 1.44 2.932 1.44s2.258-.566 2.934-1.44c-.842.333-1.85.526-2.934.526zm0 9.519c-1.852 0-3.572-.333-5.011-.901 1.154 1.494 2.966 2.461 5.011 2.461s3.855-.967 5.01-2.461c-1.439.568-3.16.901-5.01.901z"/><path fill="#CEA063" d="M101.234 46.678l.315-5.777h-32.55l.313 5.777z"/><path fill="#050505" d="M101.619 40.901l2.855-16.509s-4.307-8.452-19.107-8.452c-17.99 0-19.295 8.452-19.295 8.452l2.856 16.509h32.691z"/><path fill="#DD002A" d="M68.928 40.901h32.693l1.223-7.079h-35.141z"/><path fill="#050505" d="M63.991 44.851l-1.316-3.95h45.196l-1.316 3.95z"/><circle fill="#050505" cx="85.273" cy="36.085" r="5.263"/><path fill="#DD002A" d="M85.273 40.705c-2.547 0-4.621-2.073-4.621-4.619 0-2.547 2.074-4.62 4.621-4.62s4.619 2.073 4.619 4.62c.001 2.546-2.072 4.619-4.619 4.619zm0-8.637c-2.215 0-4.017 1.803-4.017 4.018 0 2.213 1.802 4.014 4.017 4.014s4.016-1.801 4.016-4.014c0-2.215-1.801-4.018-4.016-4.018zm0 7.352c-1.838 0-3.336-1.496-3.336-3.334 0-1.84 1.498-3.336 3.336-3.336 1.84 0 3.336 1.496 3.336 3.336 0 1.838-1.496 3.334-3.336 3.334zm0-6.233c-1.598 0-2.9 1.3-2.9 2.899 0 1.598 1.303 2.896 2.9 2.896 1.6 0 2.898-1.299 2.898-2.896.001-1.6-1.298-2.899-2.898-2.899zm2.352.633l-1.15 1.475 1.808-.473-1.605.959 1.859.213-1.844.316 1.657.87-1.834-.373 1.23 1.41-1.574-1.012.637 1.759-1.104-1.51-.041 1.87-.482-1.807-.713 1.73.201-1.86-1.289 1.355.859-1.661-1.693.798 1.402-1.24-1.865.133 1.754-.647-1.787-.553 1.871.03-1.469-1.159 1.735.703-.952-1.611 1.364 1.282-.305-1.846.807 1.687.384-1.83.143 1.865 1.019-1.568-.541 1.791z"/><path fill="#050505" d="M86.27 36.086c0 .549-.445.995-.996.995s-.998-.446-.998-.995c0-.552.447-.998.998-.998s.996.446.996.998z"/><path fill="#DD002A" d="M85.039 81.104c-10.791 0-14.127-5.024-14.13-5.03l.388 7.141s3.244 4.895 13.748 4.895c8.832 0 14.203-4.895 14.203-4.895l.389-7.141c-.006.007-5.526 5.03-14.598 5.03z"/><path fill="#050505" d="M85.271 88.018c.264-.93.422-2.125.422-3.428 0-1.305-.158-2.5-.422-3.43-.262.93-.42 2.125-.42 3.43.001 1.303.159 2.498.42 3.428z"/><circle fill="#930023" cx="87.828" cy="84.809" r=".987"/><circle fill="#fff" cx="87.609" cy="84.589" r=".987"/><path fill="#FFB000" d="M88.768 94.421h-6.988c-1.109 0-2.011.903-2.011 2.012v4.972c0 1.108.901 2.012 2.011 2.012h6.988c1.107 0 2.01-.903 2.01-2.012v-4.972c-.001-1.109-.903-2.012-2.01-2.012zm-.545 2.791v3.414c0 .203-.166.368-.367.368h-5.162c-.203 0-.369-.165-.369-.368v-3.414c0-.203.166-.368.369-.368h5.162c.201 0 .367.165.367.368z"/><path fill="#C98C28" d="M85.256 55.438l.017-.02.018.02 3.865-2.723h-7.765z"/><path fill="#4F1907" d="M85.273 54.833s-3.254-3.876-10.897-1.974c-7.643 1.9-11.555 11.371-11.555 11.371s4.168 3.109 10.676 2.268c6.51-.842 11.812-7.789 11.776-11.665zm0 0s3.254-3.876 10.896-1.974c7.643 1.9 11.557 11.371 11.557 11.371s-4.17 3.109-10.68 2.268c-6.507-.842-11.81-7.789-11.773-11.665z"/><text transform="translate(97.75 92.5)" fill="#DD002A" font-family="'Lato-Regular'" font-size="8">G</text></g><text transform="translate(37.25 128.75)" fill="#fff" font-family="'Lato-Bold'" font-size="16">YO-GENESIS</text></svg>