<svg xmlns="http://www.w3.org/2000/svg" width="151" height="133.667"><path fill="#B54126" d="M135.959 47.206v-.085l-.067-.04zm-128.007 52.283v-.092l-.074-.042zm95.232-60.555v.002l.003.002zm.562 5.253l-.07.029c-.112-2.642-.381-4.979-.951-5.827-1.956-2.91-43.147-28.349-47.992-28.349-4.607 0-44.744 25.95-47.224 29.981-2.552 4.15-.573 38.483-.578 53.628l.072-.029c.113 2.621.383 4.936.949 5.778 1.956 2.912 43.147 28.351 47.992 28.351 4.607 0 44.745-25.95 47.224-29.982 2.552-4.151.573-38.436.578-53.58zm-95.794 55.302v-.092l-.074-.042zm46.446-89.449c-4.607 0-44.744 25.95-47.224 29.981-2.552 4.15-.573 38.483-.578 53.628l.072-.029c.113 2.621.383 4.936.949 5.778 1.956 2.912 43.147 28.351 47.992 28.351 4.607 0 44.745-25.95 47.224-29.982 2.383-3.876.814-34.045.601-50.348-2.834-3.795-7.532-11.06-10.018-15.563-12.923-8.465-35.508-21.816-39.018-21.816zm78.805 39.608h-.042l-.019.034zm-27.831-43.772l-.001.001h.001zm44.628 19.429c0-2.118-11.927-20.566-13.781-21.705-1.907-1.173-17.665-.263-24.626-.266l.013.032c-1.214.052-2.288.175-2.678.437-1.338.899-13.03 19.832-13.03 22.058 0 .493.646 1.871 1.661 3.708 4.915 3.219 8.435 5.732 8.974 6.534.569.848.839 3.185.951 5.827l.07-.029c0 .998.008 2.082.023 3.232.979 1.311 1.737 2.209 2.102 2.434 1.907 1.173 17.688.264 24.648.266l-.013-.033c1.205-.052 2.269-.176 2.656-.436 1.338-.9 13.03-19.833 13.03-22.059zm-43.007 11.345v-.002l.002.004-.002-.002zm-3.809 2.286l.003.002-.003-.004zm.492 5.279c-.112-2.642-.381-4.979-.951-5.827-.539-.802-4.059-3.315-8.974-6.534 2.486 4.503 7.184 11.769 10.018 15.563-.015-1.15-.024-2.233-.023-3.231l-.07.029z"/><text transform="translate(37.67 83.485)" fill="#fff" font-family="'Opal'" font-size="54.017">l</text><text transform="translate(49.664 83.485)" fill="#fff" font-family="'QuattrocentoSans'" font-size="30.941">w</text></svg>